<svg width="32" height="36" viewBox="0 0 32 36" fill="none" xmlns="http://www.w3.org/2000/svg">
<path d="M10.2498 4.58333C9.7415 4.58333 9.25399 4.78526 8.89455 5.14471C8.5351 5.50415 8.33317 5.99167 8.33317 6.5C8.33317 7.00833 8.5351 7.49584 8.89455 7.85528C9.25399 8.21473 9.7415 8.41666 10.2498 8.41666C10.7582 8.41666 11.2457 8.21473 11.6051 7.85528C11.9646 7.49584 12.1665 7.00833 12.1665 6.5C12.1665 5.99167 11.9646 5.50415 11.6051 5.14471C11.2457 4.78526 10.7582 4.58333 10.2498 4.58333ZM4.82567 4.58333C5.22166 3.46106 5.956 2.48924 6.92749 1.80184C7.89897 1.11444 9.05975 0.7453 10.2498 0.7453C11.4399 0.7453 12.6007 1.11444 13.5722 1.80184C14.5437 2.48924 15.278 3.46106 15.674 4.58333H29.4165C29.9248 4.58333 30.4123 4.78526 30.7718 5.14471C31.1312 5.50415 31.3332 5.99167 31.3332 6.5C31.3332 7.00833 31.1312 7.49584 30.7718 7.85528C30.4123 8.21473 29.9248 8.41666 29.4165 8.41666H15.674C15.278 9.53893 14.5437 10.5107 13.5722 11.1982C12.6007 11.8856 11.4399 12.2547 10.2498 12.2547C9.05975 12.2547 7.89897 11.8856 6.92749 11.1982C5.956 10.5107 5.22166 9.53893 4.82567 8.41666H2.58317C2.07484 8.41666 1.58733 8.21473 1.22788 7.85528C0.868438 7.49584 0.666504 7.00833 0.666504 6.5C0.666504 5.99167 0.868438 5.50415 1.22788 5.14471C1.58733 4.78526 2.07484 4.58333 2.58317 4.58333H4.82567ZM21.7498 16.0833C21.2415 16.0833 20.754 16.2853 20.3945 16.6447C20.0351 17.0042 19.8332 17.4917 19.8332 18C19.8332 18.5083 20.0351 18.9958 20.3945 19.3553C20.754 19.7147 21.2415 19.9167 21.7498 19.9167C22.2582 19.9167 22.7457 19.7147 23.1051 19.3553C23.4646 18.9958 23.6665 18.5083 23.6665 18C23.6665 17.4917 23.4646 17.0042 23.1051 16.6447C22.7457 16.2853 22.2582 16.0833 21.7498 16.0833ZM16.3257 16.0833C16.7217 14.9611 17.456 13.9892 18.4275 13.3018C19.399 12.6144 20.5598 12.2453 21.7498 12.2453C22.9399 12.2453 24.1007 12.6144 25.0722 13.3018C26.0437 13.9892 26.778 14.9611 27.174 16.0833H29.4165C29.9248 16.0833 30.4123 16.2853 30.7718 16.6447C31.1312 17.0042 31.3332 17.4917 31.3332 18C31.3332 18.5083 31.1312 18.9958 30.7718 19.3553C30.4123 19.7147 29.9248 19.9167 29.4165 19.9167H27.174C26.778 21.0389 26.0437 22.0107 25.0722 22.6982C24.1007 23.3856 22.9399 23.7547 21.7498 23.7547C20.5598 23.7547 19.399 23.3856 18.4275 22.6982C17.456 22.0107 16.7217 21.0389 16.3257 19.9167H2.58317C2.07484 19.9167 1.58733 19.7147 1.22788 19.3553C0.868438 18.9958 0.666504 18.5083 0.666504 18C0.666504 17.4917 0.868438 17.0042 1.22788 16.6447C1.58733 16.2853 2.07484 16.0833 2.58317 16.0833H16.3257ZM10.2498 27.5833C9.7415 27.5833 9.25399 27.7853 8.89455 28.1447C8.5351 28.5042 8.33317 28.9917 8.33317 29.5C8.33317 30.0083 8.5351 30.4958 8.89455 30.8553C9.25399 31.2147 9.7415 31.4167 10.2498 31.4167C10.7582 31.4167 11.2457 31.2147 11.6051 30.8553C11.9646 30.4958 12.1665 30.0083 12.1665 29.5C12.1665 28.9917 11.9646 28.5042 11.6051 28.1447C11.2457 27.7853 10.7582 27.5833 10.2498 27.5833ZM4.82567 27.5833C5.22166 26.4611 5.956 25.4892 6.92749 24.8018C7.89897 24.1144 9.05975 23.7453 10.2498 23.7453C11.4399 23.7453 12.6007 24.1144 13.5722 24.8018C14.5437 25.4892 15.278 26.4611 15.674 27.5833H29.4165C29.9248 27.5833 30.4123 27.7853 30.7718 28.1447C31.1312 28.5042 31.3332 28.9917 31.3332 29.5C31.3332 30.0083 31.1312 30.4958 30.7718 30.8553C30.4123 31.2147 29.9248 31.4167 29.4165 31.4167H15.674C15.278 32.5389 14.5437 33.5107 13.5722 34.1982C12.6007 34.8856 11.4399 35.2547 10.2498 35.2547C9.05975 35.2547 7.89897 34.8856 6.92749 34.1982C5.956 33.5107 5.22166 32.5389 4.82567 31.4167H2.58317C2.07484 31.4167 1.58733 31.2147 1.22788 30.8553C0.868438 30.4958 0.666504 30.0083 0.666504 29.5C0.666504 28.9917 0.868438 28.5042 1.22788 28.1447C1.58733 27.7853 2.07484 27.5833 2.58317 27.5833H4.82567Z" fill="#4540DB"/>
</svg>
