<svg width="146" height="60px" viewBox="0 0 146 20" fill="none" xmlns="http://www.w3.org/2000/svg">
<path d="M8.75244 1.22656H12.4146V13.5312C12.4146 14.6624 12.1623 15.6634 11.6577 16.5342C11.1613 17.3968 10.4574 18.0641 9.5459 18.5361C8.63444 19.0081 7.60498 19.2441 6.45752 19.2441C4.57764 19.2441 3.11279 18.7681 2.06299 17.8159C1.01318 16.8556 0.488281 15.5007 0.488281 13.751H4.1748C4.1748 14.6217 4.35791 15.2646 4.72412 15.6797C5.09033 16.0947 5.66813 16.3022 6.45752 16.3022C7.15739 16.3022 7.71484 16.0622 8.12988 15.582C8.54492 15.1019 8.75244 14.4183 8.75244 13.5312V1.22656ZM14.7705 12.2739C14.7705 10.9637 15.0228 9.7959 15.5273 8.77051C16.0319 7.74512 16.7562 6.95166 17.7002 6.39014C18.6523 5.82861 19.755 5.54785 21.0083 5.54785C22.7905 5.54785 24.2432 6.0931 25.3662 7.18359C26.4974 8.27409 27.1281 9.75521 27.2583 11.627L27.2827 12.5303C27.2827 14.5566 26.7171 16.1842 25.5859 17.4131C24.4548 18.6338 22.937 19.2441 21.0327 19.2441C19.1284 19.2441 17.6066 18.6338 16.4673 17.4131C15.3361 16.1924 14.7705 14.5322 14.7705 12.4326V12.2739ZM18.2983 12.5303C18.2983 13.7835 18.5343 14.7438 19.0063 15.4111C19.4784 16.0703 20.1538 16.3999 21.0327 16.3999C21.8872 16.3999 22.5545 16.0744 23.0347 15.4233C23.5148 14.7642 23.7549 13.7144 23.7549 12.2739C23.7549 11.0451 23.5148 10.0929 23.0347 9.41748C22.5545 8.74202 21.8791 8.4043 21.0083 8.4043C20.1457 8.4043 19.4784 8.74202 19.0063 9.41748C18.5343 10.0848 18.2983 11.1224 18.2983 12.5303ZM41.3574 12.5181C41.3574 14.634 40.9058 16.286 40.0024 17.4741C39.0991 18.6541 37.8377 19.2441 36.2183 19.2441C34.786 19.2441 33.6426 18.6948 32.7881 17.5962L32.6294 19H29.4556V0.25H32.9834V6.97607C33.7972 6.02393 34.8674 5.54785 36.1938 5.54785C37.8052 5.54785 39.0666 6.14193 39.978 7.33008C40.8976 8.51009 41.3574 10.1743 41.3574 12.3228V12.5181ZM37.8296 12.2617C37.8296 10.9271 37.618 9.95459 37.1948 9.34424C36.7716 8.72575 36.141 8.4165 35.3027 8.4165C34.1797 8.4165 33.4066 8.8763 32.9834 9.7959V15.0083C33.4147 15.936 34.196 16.3999 35.3271 16.3999C36.4665 16.3999 37.2152 15.8384 37.5732 14.7153C37.7441 14.1782 37.8296 13.3604 37.8296 12.2617Z" fill="#4540DB"/>
<path d="M49.4873 11.0776C47.4772 10.4998 46.0124 9.79183 45.0928 8.95361C44.1813 8.10726 43.7256 7.06559 43.7256 5.82861C43.7256 4.42887 44.283 3.27327 45.3979 2.36182C46.521 1.44222 47.9777 0.982422 49.7681 0.982422C50.9888 0.982422 52.0752 1.21842 53.0273 1.69043C53.9876 2.16243 54.7282 2.81348 55.249 3.64355C55.778 4.47363 56.0425 5.38102 56.0425 6.36572H53.6865C53.6865 5.2915 53.3447 4.44922 52.6611 3.83887C51.9775 3.22038 51.0132 2.91113 49.7681 2.91113C48.6125 2.91113 47.7091 3.16748 47.0581 3.68018C46.4152 4.18473 46.0938 4.88867 46.0938 5.79199C46.0938 6.51628 46.3989 7.1307 47.0093 7.63525C47.6278 8.13167 48.6735 8.5874 50.1465 9.00244C51.6276 9.41748 52.7832 9.87728 53.6133 10.3818C54.4515 10.8783 55.07 11.4601 55.4688 12.1274C55.8757 12.7948 56.0791 13.5801 56.0791 14.4834C56.0791 15.9238 55.5176 17.0794 54.3945 17.9502C53.2715 18.8128 51.77 19.2441 49.8901 19.2441C48.6694 19.2441 47.5301 19.0122 46.4722 18.5483C45.4142 18.0763 44.5964 17.4334 44.0186 16.6196C43.4489 15.8058 43.1641 14.8822 43.1641 13.8486H45.52C45.52 14.9229 45.9147 15.7733 46.7041 16.3999C47.5016 17.0184 48.5636 17.3276 49.8901 17.3276C51.1271 17.3276 52.0752 17.0754 52.7344 16.5708C53.3936 16.0662 53.7231 15.3786 53.7231 14.5078C53.7231 13.637 53.418 12.9657 52.8076 12.4937C52.1973 12.0135 51.0905 11.5415 49.4873 11.0776ZM58.1421 12.2739C58.1421 10.98 58.3944 9.81624 58.8989 8.78271C59.4116 7.74919 60.1196 6.95166 61.0229 6.39014C61.9344 5.82861 62.972 5.54785 64.1357 5.54785C65.9342 5.54785 67.3869 6.17041 68.4937 7.41553C69.6086 8.66064 70.166 10.3167 70.166 12.3838V12.5425C70.166 13.8283 69.9178 14.9839 69.4214 16.0093C68.9331 17.0265 68.2292 17.82 67.3096 18.3896C66.3981 18.9593 65.3483 19.2441 64.1602 19.2441C62.3698 19.2441 60.9172 18.6216 59.8022 17.3765C58.6955 16.1313 58.1421 14.4834 58.1421 12.4326V12.2739ZM60.4126 12.5425C60.4126 14.0073 60.7503 15.1833 61.4258 16.0703C62.1094 16.9574 63.0208 17.4009 64.1602 17.4009C65.3076 17.4009 66.2191 16.9533 66.8945 16.0581C67.57 15.1548 67.9077 13.8934 67.9077 12.2739C67.9077 10.8254 67.5618 9.65348 66.8701 8.7583C66.1865 7.85498 65.2751 7.40332 64.1357 7.40332C63.0208 7.40332 62.1216 7.84684 61.438 8.73389C60.7544 9.62093 60.4126 10.8905 60.4126 12.5425ZM75.4517 19H73.1934V0.25H75.4517V19ZM87.2314 17.6938C86.3525 18.7274 85.0627 19.2441 83.3618 19.2441C81.9539 19.2441 80.8797 18.8372 80.1392 18.0234C79.4067 17.2015 79.0365 15.9889 79.0283 14.3857V5.79199H81.2866V14.3247C81.2866 16.3267 82.1004 17.3276 83.728 17.3276C85.4533 17.3276 86.6007 16.6847 87.1704 15.3989V5.79199H89.4287V19H87.2803L87.2314 17.6938ZM95.9351 2.59375V5.79199H98.4009V7.5376H95.9351V15.7285C95.9351 16.2575 96.0449 16.6562 96.2646 16.9248C96.4844 17.1852 96.8587 17.3154 97.3877 17.3154C97.6481 17.3154 98.0062 17.2666 98.4619 17.1689V19C97.8678 19.1628 97.29 19.2441 96.7285 19.2441C95.7194 19.2441 94.9585 18.939 94.4458 18.3286C93.9331 17.7183 93.6768 16.8516 93.6768 15.7285V7.5376H91.272V5.79199H93.6768V2.59375H95.9351ZM103.503 19H101.245V5.79199H103.503V19ZM101.062 2.28857C101.062 1.92236 101.172 1.61312 101.392 1.36084C101.619 1.10856 101.953 0.982422 102.393 0.982422C102.832 0.982422 103.166 1.10856 103.394 1.36084C103.621 1.61312 103.735 1.92236 103.735 2.28857C103.735 2.65479 103.621 2.95996 103.394 3.2041C103.166 3.44824 102.832 3.57031 102.393 3.57031C101.953 3.57031 101.619 3.44824 101.392 3.2041C101.172 2.95996 101.062 2.65479 101.062 2.28857ZM106.531 12.2739C106.531 10.98 106.783 9.81624 107.288 8.78271C107.8 7.74919 108.508 6.95166 109.412 6.39014C110.323 5.82861 111.361 5.54785 112.524 5.54785C114.323 5.54785 115.776 6.17041 116.882 7.41553C117.997 8.66064 118.555 10.3167 118.555 12.3838V12.5425C118.555 13.8283 118.306 14.9839 117.81 16.0093C117.322 17.0265 116.618 17.82 115.698 18.3896C114.787 18.9593 113.737 19.2441 112.549 19.2441C110.758 19.2441 109.306 18.6216 108.191 17.3765C107.084 16.1313 106.531 14.4834 106.531 12.4326V12.2739ZM108.801 12.5425C108.801 14.0073 109.139 15.1833 109.814 16.0703C110.498 16.9574 111.41 17.4009 112.549 17.4009C113.696 17.4009 114.608 16.9533 115.283 16.0581C115.959 15.1548 116.296 13.8934 116.296 12.2739C116.296 10.8254 115.951 9.65348 115.259 8.7583C114.575 7.85498 113.664 7.40332 112.524 7.40332C111.41 7.40332 110.51 7.84684 109.827 8.73389C109.143 9.62093 108.801 10.8905 108.801 12.5425ZM123.523 5.79199L123.596 7.45215C124.605 6.18262 125.924 5.54785 127.551 5.54785C130.343 5.54785 131.75 7.12256 131.775 10.272V19H129.517V10.2598C129.508 9.30762 129.289 8.60368 128.857 8.14795C128.434 7.69222 127.771 7.46436 126.868 7.46436C126.135 7.46436 125.492 7.65967 124.939 8.05029C124.386 8.44092 123.954 8.95361 123.645 9.58838V19H121.387V5.79199H123.523ZM142.871 15.4966C142.871 14.8862 142.639 14.4142 142.175 14.0806C141.72 13.7388 140.918 13.4458 139.771 13.2017C138.631 12.9575 137.724 12.6646 137.048 12.3228C136.381 11.981 135.885 11.5741 135.559 11.1021C135.242 10.63 135.083 10.0685 135.083 9.41748C135.083 8.33512 135.539 7.4196 136.45 6.6709C137.37 5.9222 138.542 5.54785 139.966 5.54785C141.463 5.54785 142.676 5.93441 143.604 6.70752C144.539 7.48063 145.007 8.4694 145.007 9.67383H142.737C142.737 9.05534 142.472 8.5223 141.943 8.07471C141.423 7.62712 140.763 7.40332 139.966 7.40332C139.144 7.40332 138.501 7.58236 138.037 7.94043C137.573 8.2985 137.341 8.76644 137.341 9.34424C137.341 9.88949 137.557 10.3005 137.988 10.5771C138.42 10.8538 139.197 11.1183 140.32 11.3706C141.451 11.6229 142.367 11.924 143.066 12.2739C143.766 12.6239 144.283 13.047 144.617 13.5435C144.958 14.0317 145.129 14.6299 145.129 15.3379C145.129 16.5179 144.657 17.466 143.713 18.1821C142.769 18.8901 141.545 19.2441 140.039 19.2441C138.981 19.2441 138.045 19.057 137.231 18.6826C136.418 18.3083 135.779 17.7874 135.315 17.1201C134.859 16.4447 134.631 15.7163 134.631 14.9351H136.89C136.93 15.6919 137.231 16.2941 137.793 16.7417C138.363 17.1812 139.111 17.4009 140.039 17.4009C140.894 17.4009 141.577 17.23 142.09 16.8882C142.611 16.5382 142.871 16.0744 142.871 15.4966Z" fill="black"/>
</svg>
